<svg width="222" height="42" viewBox="0 0 222 42" fill="none" xmlns="http://www.w3.org/2000/svg">
<path d="M3.8 37C3.50667 37 3.26667 36.9067 3.08 36.72C2.89333 36.5333 2.8 36.2933 2.8 36V10C2.8 9.70667 2.89333 9.46667 3.08 9.28C3.26667 9.09333 3.50667 9 3.8 9H9.08C9.34667 9 9.57333 9.09333 9.76 9.28C9.97333 9.46667 10.08 9.70667 10.08 10V30.96H22.16C22.4533 30.96 22.6933 31.0667 22.88 31.28C23.0933 31.4667 23.2 31.7067 23.2 32V36C23.2 36.2933 23.0933 36.5333 22.88 36.72C22.6933 36.9067 22.4533 37 22.16 37H3.8Z" fill="#213555"/>
<path d="M137.8 37C137.507 37 137.267 36.9067 137.08 36.72C136.893 36.5333 136.8 36.2933 136.8 36V10C136.8 9.70667 136.893 9.46667 137.08 9.28C137.267 9.09333 137.507 9 137.8 9H142.96C143.253 9 143.493 9.09333 143.68 9.28C143.867 9.46667 143.96 9.70667 143.96 10V19.64H153.84V10C153.84 9.70667 153.933 9.46667 154.12 9.28C154.307 9.09333 154.547 9 154.84 9H160C160.293 9 160.533 9.09333 160.72 9.28C160.907 9.46667 161 9.70667 161 10V36C161 36.2933 160.907 36.5333 160.72 36.72C160.533 36.9067 160.293 37 160 37H154.84C154.547 37 154.307 36.9067 154.12 36.72C153.933 36.5333 153.84 36.2933 153.84 36V26.04H143.96V36C143.96 36.2933 143.867 36.5333 143.68 36.72C143.493 36.9067 143.253 37 142.96 37H137.8ZM178.325 37.4C175.925 37.4 173.818 37.0133 172.005 36.24C170.218 35.44 168.831 34.2267 167.845 32.6C166.858 30.9467 166.365 28.8533 166.365 26.32V10C166.365 9.70667 166.458 9.46667 166.645 9.28C166.831 9.09333 167.071 9 167.365 9H172.525C172.818 9 173.058 9.09333 173.245 9.28C173.431 9.46667 173.525 9.70667 173.525 10V26.28C173.525 28.0133 173.938 29.32 174.765 30.2C175.618 31.0533 176.805 31.48 178.325 31.48C179.818 31.48 180.978 31.0533 181.805 30.2C182.658 29.32 183.085 28.0133 183.085 26.28V10C183.085 9.70667 183.178 9.46667 183.365 9.28C183.578 9.09333 183.818 9 184.085 9H189.285C189.551 9 189.778 9.09333 189.965 9.28C190.178 9.46667 190.285 9.70667 190.285 10V26.32C190.285 28.8533 189.791 30.9467 188.805 32.6C187.818 34.2267 186.431 35.44 184.645 36.24C182.858 37.0133 180.751 37.4 178.325 37.4ZM196.589 37C196.296 37 196.056 36.9067 195.869 36.72C195.682 36.5333 195.589 36.2933 195.589 36V10C195.589 9.70667 195.682 9.46667 195.869 9.28C196.056 9.09333 196.296 9 196.589 9H208.789C211.082 9 212.962 9.32 214.429 9.96C215.896 10.6 216.976 11.52 217.669 12.72C218.389 13.8933 218.749 15.2933 218.749 16.92C218.749 17.88 218.562 18.7333 218.189 19.48C217.842 20.2 217.402 20.8 216.869 21.28C216.362 21.76 215.882 22.1067 215.429 22.32C216.442 22.8 217.336 23.5867 218.109 24.68C218.909 25.7733 219.309 27.0533 219.309 28.52C219.309 30.28 218.909 31.8 218.109 33.08C217.336 34.3333 216.189 35.3067 214.669 36C213.176 36.6667 211.336 37 209.149 37H196.589ZM202.749 31.8H208.349C209.496 31.8 210.362 31.4667 210.949 30.8C211.536 30.1333 211.829 29.3733 211.829 28.52C211.829 27.5867 211.522 26.8 210.909 26.16C210.322 25.52 209.469 25.2 208.349 25.2H202.749V31.8ZM202.749 20.12H207.989C209.082 20.12 209.896 19.84 210.429 19.28C210.989 18.72 211.269 18 211.269 17.12C211.269 16.2667 210.989 15.5733 210.429 15.04C209.896 14.48 209.082 14.2 207.989 14.2H202.749V20.12Z" fill="#3E5879"/>
<path d="M57.8 37C57.5067 37 57.2667 36.9067 57.08 36.72C56.8933 36.5333 56.8 36.2933 56.8 36V10C56.8 9.70667 56.8933 9.46667 57.08 9.28C57.2667 9.09333 57.5067 9 57.8 9H62.84C63.1333 9 63.3733 9.09333 63.56 9.28C63.7467 9.46667 63.84 9.70667 63.84 10V18.88L71.24 9.76C71.3467 9.6 71.52 9.44 71.76 9.28C72.0267 9.09333 72.3733 9 72.8 9H78.56C78.8 9 79 9.09333 79.16 9.28C79.32 9.44 79.4 9.62667 79.4 9.84C79.4 10.0267 79.3467 10.1867 79.24 10.32L69.68 22.4L80 35.68C80.1067 35.7867 80.16 35.9467 80.16 36.16C80.16 36.3733 80.0667 36.5733 79.88 36.76C79.72 36.92 79.5333 37 79.32 37H73.36C72.88 37 72.5067 36.8933 72.24 36.68C72 36.4667 71.84 36.3067 71.76 36.2L63.84 26.32V36C63.84 36.2933 63.7467 36.5333 63.56 36.72C63.3733 36.9067 63.1333 37 62.84 37H57.8ZM84.2844 37C83.991 37 83.751 36.9067 83.5644 36.72C83.3777 36.5333 83.2844 36.2933 83.2844 36V10C83.2844 9.70667 83.3777 9.46667 83.5644 9.28C83.751 9.09333 83.991 9 84.2844 9H102.964C103.258 9 103.498 9.09333 103.684 9.28C103.871 9.46667 103.964 9.70667 103.964 10V13.76C103.964 14.0533 103.871 14.2933 103.684 14.48C103.498 14.6667 103.258 14.76 102.964 14.76H90.2044V20.16H102.084C102.378 20.16 102.618 20.2667 102.804 20.48C102.991 20.6667 103.084 20.9067 103.084 21.2V24.68C103.084 24.9467 102.991 25.1867 102.804 25.4C102.618 25.5867 102.378 25.68 102.084 25.68H90.2044V31.24H103.284C103.578 31.24 103.818 31.3333 104.004 31.52C104.191 31.7067 104.284 31.9467 104.284 32.24V36C104.284 36.2933 104.191 36.5333 104.004 36.72C103.818 36.9067 103.578 37 103.284 37H84.2844ZM109.831 37C109.538 37 109.298 36.9067 109.111 36.72C108.925 36.5333 108.831 36.2933 108.831 36V10C108.831 9.70667 108.925 9.46667 109.111 9.28C109.298 9.09333 109.538 9 109.831 9H120.711C124.151 9 126.858 9.8 128.831 11.4C130.831 12.9733 131.831 15.2133 131.831 18.12C131.831 20.0133 131.365 21.6133 130.431 22.92C129.525 24.2267 128.325 25.2133 126.831 25.88L132.351 35.72C132.431 35.88 132.471 36.0267 132.471 36.16C132.471 36.3733 132.378 36.5733 132.191 36.76C132.031 36.92 131.831 37 131.591 37H126.311C125.805 37 125.431 36.88 125.191 36.64C124.951 36.3733 124.778 36.1333 124.671 35.92L120.111 27.12H115.991V36C115.991 36.2933 115.898 36.5333 115.711 36.72C115.525 36.9067 115.285 37 114.991 37H109.831ZM115.991 21.48H120.631C121.885 21.48 122.818 21.1733 123.431 20.56C124.071 19.9467 124.391 19.1067 124.391 18.04C124.391 17 124.085 16.16 123.471 15.52C122.885 14.88 121.938 14.56 120.631 14.56H115.991V21.48Z" fill="#213555"/>
<path d="M52.625 37.625L46.2812 31.2812M49.7083 23.0417C49.7083 29.485 44.485 34.7083 38.0417 34.7083C31.5983 34.7083 26.375 29.485 26.375 23.0417C26.375 16.5983 31.5983 11.375 38.0417 11.375C44.485 11.375 49.7083 16.5983 49.7083 23.0417Z" stroke="#D8C4B6" stroke-width="5" stroke-linecap="round" stroke-linejoin="round"/>
</svg>
